<?xml version="1.0" ?><svg viewBox="0 0 512 512" xmlns="http://www.w3.org/2000/svg"><defs><style>.cls-1{fill:none;stroke:#000;stroke-linecap:round;stroke-linejoin:round;stroke-width:30px;}</style></defs><title/><g data-name="1" id="_1"><rect class="cls-1" height="372" width="372" x="69.13" y="63"/><path d="M120.81,206.5a8.43,8.43,0,0,1,.31-1.71l29-95.17c1.72-5.46,8.74-8.11,15.91-8.11s14.2,2.65,15.92,8.11l29.17,95.17a8.43,8.43,0,0,1,.31,1.71c0,5.78-8.89,10-15.6,10-3.9,0-7-1.25-8-4.53l-5.3-19.5H149.67l-5.3,19.5c-.94,3.28-4.06,4.53-8,4.53C129.7,216.49,120.81,212.28,120.81,206.5Zm56.63-32.76-11.39-41.81-11.39,41.81Z"/><path d="M278.22,102.45c5.15,0,7.34,5.61,7.34,10.76,0,5.93-2.66,11.08-7.34,11.08H256.7V209c0,5-6.09,7.49-12.17,7.49S232.36,214,232.36,209V124.29H210.83c-4.68,0-7.33-5.15-7.33-11.08,0-5.15,2.18-10.76,7.33-10.76Z"/><path d="M350.14,176.08a8.94,8.94,0,0,1-8.11,4.53,8,8,0,0,1-7.64-4.53l-14.82-27.14V209c0,5-6.09,7.49-12.17,7.49S295.23,214,295.23,209V114.62c0-8.9,6.08-12.17,12.17-12.17,8.73,0,12.48.93,18.87,12.17l16.07,28.08,16.07-28.08c6.4-11.24,10.14-12.17,18.88-12.17,6.24,0,12.17,3.27,12.17,12.17V209c0,5-6.09,7.49-12.17,7.49S365.12,214,365.12,209V150.5Z"/><line class="cls-1" x1="115.63" x2="255.63" y1="281" y2="281"/><path class="cls-1" d="M139.63,281h95a0,0,0,0,1,0,0v80.6a11.4,11.4,0,0,1-11.4,11.4H151a11.4,11.4,0,0,1-11.4-11.4V281A0,0,0,0,1,139.63,281Z"/><line class="cls-1" x1="306.63" x2="306.63" y1="281" y2="281"/><line class="cls-1" x1="394.63" x2="394.63" y1="281" y2="281"/><line class="cls-1" x1="350.63" x2="350.63" y1="281" y2="281"/><line class="cls-1" x1="306.63" x2="306.63" y1="327" y2="327"/><line class="cls-1" x1="394.63" x2="394.63" y1="327" y2="327"/><line class="cls-1" x1="350.63" x2="350.63" y1="327" y2="327"/><line class="cls-1" x1="306.63" x2="306.63" y1="373" y2="373"/><line class="cls-1" x1="394.63" x2="394.63" y1="373" y2="373"/><line class="cls-1" x1="350.63" x2="350.63" y1="373" y2="373"/></g></svg>