<?xml version="1.0" ?><!DOCTYPE svg  PUBLIC '-//W3C//DTD SVG 1.1//EN'  'http://www.w3.org/Graphics/SVG/1.1/DTD/svg11.dtd'><svg enable-background="new 0 0 64 64" version="1.1" viewBox="0 0 64 64" xml:space="preserve" xmlns="http://www.w3.org/2000/svg" xmlns:xlink="http://www.w3.org/1999/xlink"><g id="Layer_1"/><g id="Layer_3"><g><path d="M10,26.8c1.4,0,2.7-0.8,3.4-1.9c2.8,0.9,6.6,2.8,7,6.4l-0.6,1.9c-0.1,0.4,0,0.9,0.4,1.2c0,0,0,0,0,0v5.7    c0,5.8,4.7,10.5,10.5,10.5s10.5-4.7,10.5-10.5v-5.6c0,0,0.1,0,0.1-0.1c0.4-0.2,0.6-0.5,0.6-0.9c0-0.3,0.3-6.5,8-7.1    c0.3,1.9,2,3.4,4,3.4c2.2,0,4-1.8,4-4s-1.8-4-4-4c-1.4,0-2.6,0.7-3.3,1.7c-2.9-0.8-8.4-1.5-12.7,2.8c-0.2-0.1-0.4-0.3-0.5-0.6    c-0.1-0.3-0.1-0.8,0.3-1.4c1-1.8,3-3.5,5.7-4.7c0.7,1.1,2,1.8,3.3,1.8c2.2,0,4-1.8,4-4s-1.8-4-4-4c-2,0-3.7,1.5-4,3.5    c-4.2,0.5-10.9,2.3-15.5,8.4c-1.9-1.4-6.7-4.2-13.3-3.6c-0.4-1.8-2-3.1-3.9-3.1c-2.2,0-4,1.8-4,4S7.8,26.8,10,26.8z M30.8,48.6    c-4.7,0-8.5-3.8-8.5-8.5v-4.8c1.8,0.7,4.6,1.5,8.2,1.5c2.6,0,5.6-0.4,8.8-1.6v4.8C39.3,44.8,35.5,48.6,30.8,48.6z M54,23.7    c1.1,0,2,0.9,2,2c0,1.1-0.9,2-2,2c-1.1,0-2-0.9-2-2c0-0.3,0.1-0.5,0.2-0.8c0,0,0,0,0,0c0,0,0,0,0,0C52.4,24.3,53.1,23.7,54,23.7z     M46.7,15.4c1.1,0,2,0.9,2,2c0,1.1-0.9,2-2,2c-1.1,0-2-0.9-2-2C44.7,16.3,45.6,15.4,46.7,15.4z M26.8,27.5    c0.2,0.2,0.4,0.3,0.7,0.3c0,0,0.1,0,0.1,0c0.3,0,0.5-0.2,0.7-0.4c3.1-4.6,7.6-6.8,11.3-7.8C38,20.7,36.8,22,36,23.4    c-0.8,1.4-0.6,2.5-0.4,3.1c0.6,1.4,2.1,1.9,2.3,2c0.1,0,0.2,0,0.3,0c0.3,0,0.6-0.1,0.7-0.3c2.5-2.8,5.5-3.4,8.1-3.3    c-5.4,1.6-6.7,6.2-6.9,7.9c-0.1,0-0.1,0-0.2,0.1c-9,3.7-15.7,1.2-18,0.1l0.4-1.3c0-0.1,0.1-0.3,0-0.4c-0.3-4-3.5-6.3-6.5-7.6    C22.5,23.7,26.7,27.5,26.8,27.5z M10,20.7c1.1,0,2,0.9,2,2c0,1.1-0.9,2-2,2c-1.1,0-2-0.9-2-2C8,21.6,8.9,20.7,10,20.7z"/><path d="M28.1,40.9c0.3,0,0.6-0.1,0.8-0.4c0.4-0.4,0.3-1.1-0.1-1.4c-1.9-1.6-4.6-1.1-4.8-1c-0.5,0.1-0.9,0.6-0.8,1.2    c0.1,0.5,0.6,0.9,1.2,0.8c0,0,1.9-0.4,3.1,0.6C27.7,40.9,27.9,40.9,28.1,40.9z"/><path d="M37.5,38.1c-0.1,0-2.9-0.6-4.8,1c-0.4,0.4-0.5,1-0.1,1.4c0.2,0.2,0.5,0.4,0.8,0.4c0.2,0,0.5-0.1,0.6-0.2    c1.1-1,3-0.6,3.1-0.6c0.5,0.1,1.1-0.2,1.2-0.8C38.4,38.8,38.1,38.2,37.5,38.1z"/><path d="M33.3,42.6h-5.1c-0.6,0-1,0.5-1,1.1c0,2,1.6,3.6,3.6,3.6s3.6-1.6,3.6-3.6C34.3,43.1,33.9,42.6,33.3,42.6z M30.8,45.2    c-0.5,0-1-0.2-1.2-0.6H32C31.7,45,31.3,45.2,30.8,45.2z"/></g></g></svg>